<?xml version="1.0" standalone="no"?>
<!DOCTYPE svg PUBLIC "-//W3C//DTD SVG 20010904//EN"
 "http://www.w3.org/TR/2001/REC-SVG-20010904/DTD/svg10.dtd">
<svg version="1.0" xmlns="http://www.w3.org/2000/svg"
 width="624.000000pt" height="624.000000pt" viewBox="0 0 624.000000 624.000000"
 preserveAspectRatio="xMidYMid meet">
<metadata>
Created by potrace 1.14, written by Peter Selinger 2001-2017
</metadata>
<g transform="translate(0.000000,624.000000) scale(0.100000,-0.100000)"
fill="#000000" stroke="none">
<path d="M2769 6136 c-2 -2 -33 -7 -69 -10 -84 -7 -267 -39 -350 -61 -36 -10
-69 -18 -75 -19 -5 -2 -30 -9 -55 -16 -25 -7 -51 -14 -57 -16 -14 -2 -98 -32
-128 -45 -11 -4 -56 -22 -100 -40 -85 -34 -312 -149 -357 -180 -14 -11 -29
-19 -32 -19 -20 0 -294 -205 -395 -295 -63 -56 -337 -330 -376 -375 -196 -230
-384 -547 -490 -825 -26 -68 -73 -210 -80 -244 -2 -9 -11 -41 -19 -71 -13 -46
-32 -141 -61 -305 -27 -160 -28 -826 0 -995 5 -30 14 -84 21 -125 3 -16 9 -48
14 -70 5 -22 12 -55 15 -74 3 -19 10 -41 14 -50 5 -9 12 -34 16 -56 5 -22 9
-42 10 -45 4 -16 49 -150 60 -175 7 -16 25 -61 40 -100 50 -125 199 -408 248
-470 4 -5 41 -56 82 -112 75 -103 95 -128 175 -217 101 -112 308 -310 430
-411 97 -80 338 -245 359 -245 6 0 11 -4 11 -10 0 -5 5 -10 10 -10 6 0 22 -8
37 -17 14 -10 32 -18 40 -19 8 -2 22 -9 31 -16 38 -32 362 -165 446 -183 11
-3 40 -11 65 -19 112 -36 312 -75 481 -93 98 -11 671 -10 780 0 221 22 407 62
635 138 147 50 392 162 510 234 257 158 488 349 724 599 25 27 53 57 62 66 77
81 264 340 333 462 42 74 146 288 146 300 0 8 4 18 8 23 15 17 94 233 106 290
2 6 8 30 15 55 7 25 15 53 17 62 2 10 6 28 9 40 19 77 41 206 51 290 3 29 8
69 11 88 9 58 12 630 3 700 -4 36 -11 90 -14 120 -6 55 -9 69 -26 170 -16 87
-18 97 -45 200 -22 86 -57 193 -110 340 -18 49 -154 332 -164 340 -3 3 -15 21
-25 40 -11 19 -37 61 -58 93 -21 32 -38 62 -38 67 0 5 -4 10 -8 12 -5 2 -26
28 -48 58 -38 53 -49 68 -87 113 -155 185 -391 415 -567 553 -329 258 -762
457 -1150 530 -14 2 -36 7 -50 10 -43 10 -62 13 -109 19 -25 3 -62 8 -81 12
-38 6 -784 15 -791 9z m536 -231 c140 -8 165 -11 320 -39 248 -46 475 -119
678 -218 43 -21 79 -38 82 -38 10 0 210 -120 290 -174 196 -132 426 -337 566
-506 30 -36 56 -67 59 -70 3 -3 18 -23 35 -45 16 -22 32 -42 35 -45 6 -5 132
-201 168 -261 148 -246 299 -682 337 -972 4 -27 8 -59 11 -70 10 -52 18 -213
18 -352 0 -137 -11 -332 -19 -345 -2 -3 -6 -32 -10 -65 -3 -33 -10 -78 -15
-100 -5 -22 -11 -53 -14 -70 -3 -16 -15 -66 -26 -110 -12 -44 -23 -84 -24 -90
-7 -33 -29 -85 -35 -85 -4 0 -14 12 -23 28 -60 100 -271 298 -453 424 -139 96
-410 248 -441 248 -6 0 -16 6 -22 13 -7 6 -16 12 -20 13 -10 1 -39 13 -89 35
-24 10 -49 19 -56 19 -8 0 -17 3 -21 8 -4 4 -12 8 -17 8 -5 1 -11 3 -14 4 -6
3 -6 3 -55 14 -19 5 -39 11 -45 14 -5 3 -16 7 -25 8 -8 0 -31 4 -50 7 -19 3
-60 9 -90 12 -30 3 -73 9 -95 13 -54 9 -599 8 -652 -1 -23 -4 -55 -10 -70 -12
-40 -5 -102 -16 -127 -21 -11 -3 -32 -7 -46 -10 -244 -49 -593 -193 -799 -329
-46 -30 -86 -55 -88 -55 -5 0 -189 -140 -223 -169 -137 -119 -143 -125 -250
-238 -114 -119 -137 -146 -227 -260 -68 -88 -238 -335 -257 -373 -11 -25 -31
-57 -43 -71 -19 -24 -171 -331 -208 -419 l-34 -85 -83 85 c-46 47 -100 105
-122 130 -86 99 -230 299 -272 375 -24 44 -39 70 -45 75 -25 23 -177 369 -221
505 -23 70 -85 313 -86 335 -1 8 -5 35 -11 60 -5 25 -12 70 -16 100 -3 30 -9
73 -13 95 -15 100 -6 556 13 655 2 14 7 41 9 60 11 76 15 98 35 185 17 75 33
133 75 270 7 22 19 53 47 125 17 41 31 79 32 84 3 12 134 277 149 301 7 11 35
56 63 100 27 44 53 85 57 90 131 177 161 215 240 299 31 34 67 72 80 86 29 32
129 123 191 175 27 22 58 48 70 59 46 38 207 147 303 204 294 173 593 283 949
347 17 3 53 8 80 11 28 3 55 7 62 9 7 2 68 7 135 11 68 3 124 7 125 8 3 2 119
-2 238 -9z m1180 -3256 c55 -1 104 -4 109 -7 6 -3 33 -7 60 -8 28 -1 66 -5 84
-8 17 -3 47 -8 65 -11 17 -3 43 -8 57 -10 51 -11 76 -15 102 -20 15 -3 40 -10
55 -16 15 -6 30 -10 33 -10 20 2 230 -67 248 -81 6 -6 12 -7 12 -3 0 4 7 2 15
-5 8 -7 15 -10 15 -7 0 12 300 -140 320 -162 3 -4 17 -12 32 -20 47 -24 69
-50 63 -74 -31 -113 -153 -375 -246 -529 -306 -507 -736 -886 -1270 -1121
-110 -48 -257 -103 -299 -112 -8 -2 -27 -8 -42 -14 -16 -6 -28 -8 -28 -5 0 2
-8 0 -18 -5 -11 -6 -31 -12 -46 -15 -14 -3 -34 -7 -44 -10 -9 -3 -28 -7 -42
-10 -14 -2 -61 -11 -105 -20 -82 -16 -103 -19 -235 -33 -91 -9 -430 -9 -520 0
-105 11 -163 19 -216 31 -12 2 -39 7 -60 10 -22 4 -57 11 -79 17 -22 6 -47 12
-55 14 -54 10 -254 72 -305 94 -11 5 -51 22 -90 37 -72 29 -286 134 -295 144
-3 4 -13 9 -22 13 -16 6 -205 126 -231 147 -7 5 -57 45 -112 89 -55 43 -115
92 -133 108 l-33 29 96 92 c53 51 97 92 98 92 1 0 38 34 81 75 44 41 83 72 88
69 5 -3 7 -1 6 5 -2 5 49 53 112 106 63 52 132 110 154 128 21 18 45 36 53 41
8 4 23 16 32 25 10 9 28 23 40 31 13 8 33 23 44 32 68 55 116 88 125 88 6 0
12 3 14 8 4 10 108 85 108 78 0 -3 12 6 26 19 15 14 33 25 40 25 8 0 14 5 14
10 0 6 7 10 15 10 8 0 15 5 15 11 0 5 4 8 9 5 5 -4 11 -2 13 3 5 14 146 98
297 177 24 13 48 28 55 32 6 5 22 13 36 17 14 4 27 10 30 14 14 17 297 141
304 133 3 -3 6 1 6 8 0 7 3 10 7 7 3 -4 11 -3 17 2 22 18 378 133 397 128 10
-3 17 -1 13 4 -3 5 0 10 5 10 6 1 14 2 19 4 10 2 72 15 97 20 11 2 21 4 23 5
1 2 11 4 22 5 11 1 22 4 25 5 7 4 15 5 68 14 27 4 59 10 70 12 32 7 137 18
174 18 18 1 33 3 33 6 0 3 14 6 30 6 17 1 30 -3 30 -10 0 -8 3 -7 8 1 7 12 88
20 167 16 22 0 85 -2 140 -4z"/>
<path d="M2695 5354 c-295 -80 -478 -361 -430 -659 9 -53 43 -141 72 -188 13
-21 21 -43 17 -49 -4 -6 -3 -8 3 -5 5 3 20 -8 33 -26 13 -18 31 -37 39 -43 9
-7 30 -24 46 -38 35 -30 147 -90 190 -101 17 -5 37 -10 45 -13 39 -11 224 -8
263 5 22 8 46 12 54 9 8 -3 12 -2 9 3 -3 5 4 11 17 15 35 8 137 78 186 126 43
43 103 129 120 172 5 13 15 37 21 53 17 42 23 87 24 180 0 121 -18 194 -69
281 -13 23 -21 45 -17 49 4 5 1 5 -5 1 -7 -4 -13 -2 -13 3 0 18 -92 105 -155
148 -93 62 -171 86 -295 89 -65 1 -124 -3 -155 -12z"/>
<path d="M4088 4055 c-2 -1 -41 -5 -88 -9 -216 -16 -346 -44 -467 -102 -43
-20 -109 -50 -148 -66 -38 -17 -83 -36 -100 -44 -181 -81 -642 -233 -815 -269
-14 -2 -66 -14 -117 -24 -51 -11 -114 -23 -140 -27 -26 -3 -50 -7 -53 -9 -3
-2 -30 -6 -60 -10 -30 -3 -66 -8 -80 -10 -162 -26 -490 -36 -680 -21 -99 7
-309 34 -320 41 -4 2 -20 6 -36 9 -16 3 -54 12 -84 20 -30 8 -56 13 -58 11 -8
-8 34 -73 69 -107 20 -21 34 -38 31 -38 -4 0 4 -6 18 -13 14 -8 24 -18 23 -24
-1 -5 3 -10 10 -10 7 0 48 -22 92 -50 44 -27 114 -64 155 -82 41 -18 83 -36
92 -42 10 -5 25 -9 33 -9 8 0 15 -5 15 -10 0 -6 3 -9 8 -8 15 5 171 -46 166
-54 -3 -4 0 -8 5 -8 6 0 11 4 11 9 0 4 16 3 35 -3 19 -6 35 -15 35 -19 0 -5 4
-5 10 -2 12 7 81 -5 76 -14 -2 -3 10 -6 27 -6 18 0 52 -4 77 -8 85 -13 115
-17 155 -20 22 -2 45 -6 52 -10 6 -4 14 -3 17 2 3 4 23 6 43 2 56 -9 360 0
380 12 4 2 28 8 52 12 32 5 46 4 53 -6 8 -11 9 -10 5 3 -5 13 3 18 35 23 80
14 303 106 451 186 11 6 21 8 24 5 3 -3 12 2 21 10 8 9 23 13 34 11 10 -3 16
-1 12 4 -5 8 12 13 44 12 6 -1 12 4 12 9 0 6 9 8 20 5 11 -3 18 -2 15 3 -6 10
24 22 36 14 5 -3 9 0 9 7 0 7 10 9 25 7 13 -3 22 -1 19 3 -4 7 32 20 91 34 6
1 17 5 25 8 46 19 131 37 141 31 7 -4 9 -3 6 3 -4 7 27 19 81 32 48 12 94 24
102 26 15 4 89 23 123 31 9 2 25 6 35 9 68 18 105 25 113 20 5 -4 9 -2 9 3 0
8 57 24 130 36 14 2 56 11 93 21 37 9 75 14 83 11 8 -3 13 -2 9 3 -5 8 17 14
100 26 17 2 55 11 85 19 30 8 71 17 90 20 19 3 58 10 85 15 28 6 61 13 75 16
14 2 58 11 98 19 40 9 92 18 115 21 23 4 48 10 57 15 9 5 23 4 34 -2 14 -8 17
-7 12 1 -4 6 0 11 11 12 10 0 29 3 43 6 14 3 36 6 50 6 14 1 27 5 31 9 3 4 23
9 45 10 72 5 68 20 -15 60 -121 59 -359 130 -516 152 -23 4 -50 8 -62 10 -12
3 -50 8 -85 11 -35 4 -76 9 -93 11 -34 5 -453 13 -457 9z"/>
</g>
</svg>
